<svg xmlns="http://www.w3.org/2000/svg" version="1.1" xmlns:xlink="http://www.w3.org/1999/xlink" xmlns:svgjs="http://svgjs.dev/svgjs" width="2000" height="1500" viewBox="0 0 2000 1500"><rect width="2000" height="1500" fill="#000000"></rect><g transform="matrix(0.75,0,0,0.75,249.090909090909,282.7536437246963)"><svg viewBox="0 0 396 247" data-background-color="#000000" preserveAspectRatio="xMidYMid meet" height="1247" width="2000" xmlns="http://www.w3.org/2000/svg" xmlns:xlink="http://www.w3.org/1999/xlink"><g id="tight-bounds" transform="matrix(1,0,0,1,0.2400000000000091,-0.09999999999999432)"><svg viewBox="0 0 395.52 247.2" height="247.2" width="395.52"><g><svg></svg></g><g><svg viewBox="0 0 395.52 247.2" height="247.2" width="395.52"><g transform="matrix(1,0,0,1,75.54432,89.25053926234304)"><svg viewBox="0 0 244.43135999999998 68.69892147531392" height="68.69892147531392" width="244.43135999999998"><g><svg viewBox="0 0 366.9088163357232 103.12195604544453" height="68.69892147531392" width="244.43135999999998"><g transform="matrix(1,0,0,1,0,14.252021421620775)"><svg viewBox="0 0 244.43135999999998 74.61791320220298" height="74.61791320220298" width="244.43135999999998"><g id="textblocktransform"><svg viewBox="0 0 244.43135999999998 74.61791320220298" height="74.61791320220298" width="244.43135999999998" id="textblock"><g><svg viewBox="0 0 244.43135999999998 74.61791320220298" height="74.61791320220298" width="244.43135999999998"><g transform="matrix(1,0,0,1,0,0)"><svg width="244.43135999999998" viewBox="2 -36.77 124.11 37.89" height="74.61791320220298" data-palette-color="#ffffff"><path d="M2-1.37L2-1.37 2.64-35.16 5.27-35.16 21.24-4.83 21.24-8.69Q21.24-23.44 21.78-35.21L21.78-35.21 24.56-34.67Q25.1-24.07 25.44 0.24L25.44 0.24Q24.41 0.68 23.29 0.68L23.29 0.68Q21.63 0.68 19.82-0.29L19.82-0.29Q16.85-4.88 12.43-13.72 8.01-22.56 6.15-25.83L6.15-25.83Q6.2-22.51 6.23-13.72 6.25-4.93 6.4-0.39L6.4-0.39Q5.96 1.12 4.69 1.12L4.69 1.12Q3.81 1.12 3 0.39 2.2-0.34 2-1.37ZM29.49-16.36L29.49-16.36Q29.49-18.02 29.49-18.87 29.49-19.73 29.56-21.48 29.64-23.24 29.76-24.27 29.88-25.29 30.12-26.93 30.37-28.56 30.76-29.57 31.15-30.57 31.66-31.84 32.18-33.11 32.96-33.89 33.74-34.67 34.67-35.38 35.59-36.08 36.86-36.43 38.13-36.77 39.65-36.77L39.65-36.77Q42.67-36.77 44.92-35.57 47.17-34.38 48.44-32.57 49.7-30.76 50.46-28.13 51.22-25.49 51.44-23.1 51.66-20.7 51.66-17.82L51.66-17.82Q51.66-15.87 51.58-14.31 51.51-12.74 51.29-10.77 51.07-8.79 50.66-7.28 50.24-5.76 49.51-4.22 48.78-2.69 47.78-1.68 46.77-0.68 45.26-0.05 43.75 0.59 41.89 0.59L41.89 0.59Q38.86 0.59 36.69-0.15 34.52-0.88 33.13-2.2 31.74-3.52 30.93-5.66 30.12-7.81 29.81-10.35 29.49-12.89 29.49-16.36ZM48.14-15.97L48.14-15.97Q48.14-18.36 47.78-20.95 47.41-23.54 46.56-26.51 45.7-29.49 43.85-31.37 41.99-33.25 39.4-33.25L39.4-33.25Q37.45-33.25 35.96-30.64 34.47-28.03 33.84-24.78 33.2-21.53 33.2-18.65L33.2-18.65Q33.2-16.65 33.23-15.6 33.25-14.55 33.4-12.62 33.54-10.69 33.81-9.57 34.08-8.45 34.67-6.98 35.25-5.52 36.06-4.71 36.86-3.91 38.16-3.3 39.45-2.69 41.06-2.64L41.06-2.64Q44.63-2.83 46.38-6.64 48.14-10.45 48.14-15.97ZM55.61-0.29L55.61-0.29 55.76-35.55Q66.6-35.45 72.5-30 78.41-24.56 78.41-14.06L78.41-14.06Q78.41-10.69 76.66-7.91 74.9-5.13 72.14-3.47 69.38-1.81 66.18-0.9 62.98 0 59.86 0L59.86 0Q57.91 0 55.61-0.29ZM59.27-3.27L59.27-3.27 60.1-3.27Q62.89-3.27 65.47-3.93 68.06-4.59 70.26-5.91 72.46-7.23 73.77-9.55 75.09-11.87 75.09-14.89L75.09-14.89Q75.09-18.99 72.63-23.22 70.16-27.44 66.67-30.05 63.18-32.67 60.2-32.67L60.2-32.67Q59.57-32.67 58.98-32.52L58.98-32.52Q58.98-29.59 59.27-3.27ZM82.37-0.29L82.37-0.29 82.51-35.55Q93.35-35.45 99.26-30 105.17-24.56 105.17-14.06L105.17-14.06Q105.17-10.69 103.41-7.91 101.65-5.13 98.89-3.47 96.14-1.81 92.94-0.9 89.74 0 86.61 0L86.61 0Q84.66 0 82.37-0.29ZM86.03-3.27L86.03-3.27 86.86-3.27Q89.64-3.27 92.23-3.93 94.82-4.59 97.01-5.91 99.21-7.23 100.53-9.55 101.85-11.87 101.85-14.89L101.85-14.89Q101.85-18.99 99.38-23.22 96.92-27.44 93.43-30.05 89.93-32.67 86.96-32.67L86.96-32.67Q86.32-32.67 85.73-32.52L85.73-32.52Q85.73-29.59 86.03-3.27ZM123.43-35.3L123.43-35.3 126.11-34.47Q125.67-33.64 123.94-29.81 122.21-25.98 120.16-21.92 118.11-17.87 116.15-14.79L116.15-14.79Q116.35-12.4 116.4-7.37 116.45-2.34 116.59-0.15L116.59-0.15Q116.15-0.05 114.35-0.05L114.35-0.05Q112.64-0.05 112.29-0.15L112.29-0.15Q112.44-2.25 112.51-7.35 112.59-12.45 112.78-14.79L112.78-14.79Q110.34-18.85 107.34-26.12 104.34-33.4 103.51-35.11L103.51-35.11 106.78-35.35 114.49-18.75Q115.37-20.31 118.52-26.51 121.67-32.71 123.43-35.3Z" opacity="1" transform="matrix(1,0,0,1,0,0)" fill="#ffffff" class="wordmark-text-0" data-fill-palette-color="primary" id="text-0"></path></svg></g></svg></g></svg></g></svg></g><g transform="matrix(1,0,0,1,262.04685847712324,0)"><svg viewBox="0 0 104.86195785859995 103.12195604544453" height="103.12195604544453" width="104.86195785859995"><g><svg xmlns="http://www.w3.org/2000/svg" xmlns:xlink="http://www.w3.org/1999/xlink" version="1.1" x="0" y="0" viewBox="8.773987041127395 8.75 82.92601295887262 81.55" style="enable-background:new 0 0 100 100;" xml:space="preserve" height="103.12195604544453" width="104.86195785859995" class="icon-icon-0" data-fill-palette-color="accent" id="icon-0"><path d="M73 64.2c-0.3-0.2-0.7-0.3-1.1-0.1-0.3 0.2-0.6 0.5-0.6 0.9l0 3.1-2.6 1.8c-0.3 0.2-0.5 0.6-0.4 1 0.1 0.4 0.3 0.7 0.7 0.8l3 1 0.9 3c0.1 0.4 0.4 0.6 0.8 0.7 0.1 0 0.1 0 0.2 0 0.3 0 0.6-0.1 0.8-0.4l1.8-2.5 3.1 0.1c0.4 0 0.7-0.2 0.9-0.5 0.2-0.3 0.1-0.7-0.1-1.1l-1.8-2.5 1.1-3c0.1-0.4 0-0.8-0.2-1-0.3-0.3-0.7-0.4-1-0.3l-3 1L73 64.2zM77.1 67.7l-0.5 1.5c-0.1 0.3-0.1 0.7 0.1 0.9l1 1.3-1.6 0c-0.3 0-0.6 0.1-0.8 0.4l-1 1.3-0.5-1.6c-0.1-0.3-0.3-0.6-0.6-0.7l-1.6-0.5 1.3-0.9c0.3-0.2 0.4-0.5 0.4-0.8l0-1.6 1.3 1c0.3 0.2 0.6 0.3 0.9 0.2L77.1 67.7z" fill="#ffffff" data-fill-palette-color="accent"></path><path d="M76 53.5l2.4 2.1-0.4 3.1c0 0.4 0.1 0.7 0.4 1 0.2 0.1 0.4 0.2 0.5 0.2 0.2 0 0.4 0 0.5-0.1l2.7-1.6 2.8 1.3c0.3 0.2 0.8 0.1 1-0.1s0.4-0.6 0.3-1l-0.7-3.1 2.1-2.3c0.3-0.3 0.3-0.7 0.2-1-0.1-0.4-0.5-0.6-0.8-0.6l-3.1-0.3-1.5-2.7c-0.2-0.3-0.5-0.5-0.9-0.5-0.4 0-0.7 0.3-0.9 0.6l-1.2 2.9-3.1 0.6c-0.4 0.1-0.7 0.4-0.8 0.7C75.6 52.8 75.7 53.2 76 53.5zM80.4 53c0.3-0.1 0.6-0.3 0.7-0.6l0.6-1.5 0.8 1.4c0.2 0.3 0.5 0.5 0.8 0.5L85 53l-1.1 1.2c-0.2 0.2-0.3 0.6-0.2 0.9l0.4 1.6L82.5 56c-0.3-0.1-0.6-0.1-0.9 0l-1.4 0.8 0.2-1.6c0-0.3-0.1-0.7-0.3-0.9l-1.2-1.1L80.4 53z" fill="#ffffff" data-fill-palette-color="accent"></path><path d="M80.4 16.2l1.8 0 1 1.5c0.2 0.3 0.5 0.4 0.8 0.4 0 0 0.1 0 0.1 0 0.4-0.1 0.7-0.3 0.8-0.7l0.6-1.7 1.8-0.5c0.4-0.1 0.6-0.4 0.7-0.8 0.1-0.4-0.1-0.8-0.4-1l-1.5-1.1 0.1-1.8c0-0.4-0.2-0.7-0.5-0.9-0.3-0.2-0.7-0.2-1.1 0.1l-1.5 1.1-1.7-0.6c-0.4-0.1-0.8 0-1 0.2-0.3 0.3-0.4 0.7-0.3 1l0.6 1.8-1.1 1.5c-0.2 0.3-0.3 0.7-0.1 1C79.7 16 80 16.2 80.4 16.2zM82.7 13.9c0.2-0.3 0.3-0.6 0.2-0.9l-0.1-0.3 0.3 0.1c0.3 0.1 0.7 0.1 0.9-0.1l0.3-0.2 0 0.3c0 0.3 0.1 0.6 0.4 0.8l0.3 0.2L84.6 14c-0.3 0.1-0.6 0.3-0.7 0.6l-0.1 0.3-0.2-0.3c-0.2-0.3-0.5-0.4-0.8-0.4l-0.3 0L82.7 13.9z" fill="#ffffff" data-fill-palette-color="accent"></path><circle cx="88.7" cy="78" r="1.1" fill="#ffffff" data-fill-palette-color="accent"></circle><circle cx="86" cy="27" r="1.1" fill="#ffffff" data-fill-palette-color="accent"></circle><circle cx="69.9" cy="56.5" r="1.1" fill="#ffffff" data-fill-palette-color="accent"></circle><circle cx="68.8" cy="44.2" r="1.1" fill="#ffffff" data-fill-palette-color="accent"></circle><circle cx="76.8" cy="43.1" r="1.1" fill="#ffffff" data-fill-palette-color="accent"></circle><circle cx="72.3" cy="17.2" r="1.1" fill="#ffffff" data-fill-palette-color="accent"></circle><circle cx="62.2" cy="12.5" r="1.1" fill="#ffffff" data-fill-palette-color="accent"></circle><path d="M91.4 68.7c0-2.1-1.7-3.8-3.8-3.8-2.1 0-3.8 1.7-3.8 3.8s1.7 3.8 3.8 3.8C89.7 72.4 91.4 70.8 91.4 68.7zM87.7 70.4c-1 0-1.8-0.8-1.8-1.8 0-1 0.8-1.8 1.8-1.8 1 0 1.8 0.8 1.8 1.8C89.4 69.7 88.6 70.4 87.7 70.4z" fill="#ffffff" data-fill-palette-color="accent"></path><path d="M81.9 89.3c2.1 0 3.8-1.7 3.8-3.8s-1.7-3.8-3.8-3.8c-2.1 0-3.8 1.7-3.8 3.8S79.8 89.3 81.9 89.3zM81.9 83.8c1 0 1.8 0.8 1.8 1.8s-0.8 1.8-1.8 1.8c-1 0-1.8-0.8-1.8-1.8S80.9 83.8 81.9 83.8z" fill="#ffffff" data-fill-palette-color="accent"></path><path d="M84.9 39.2c0 1.9 1.5 3.4 3.4 3.4 1.9 0 3.4-1.5 3.4-3.4s-1.5-3.4-3.4-3.4C86.4 35.8 84.9 37.3 84.9 39.2zM88.3 37.8c0.8 0 1.4 0.6 1.4 1.4s-0.6 1.4-1.4 1.4-1.4-0.6-1.4-1.4S87.5 37.8 88.3 37.8z" fill="#ffffff" data-fill-palette-color="accent"></path><path d="M18.5 53.7c0-1.9-1.5-3.4-3.4-3.4-1.9 0-3.4 1.5-3.4 3.4s1.5 3.4 3.4 3.4C17 57.1 18.5 55.6 18.5 53.7zM15.1 55.1c-0.8 0-1.4-0.6-1.4-1.4s0.6-1.4 1.4-1.4 1.4 0.6 1.4 1.4S15.9 55.1 15.1 55.1z" fill="#ffffff" data-fill-palette-color="accent"></path><path d="M71.3 27.8c0 2.1 1.7 3.8 3.8 3.8 2.1 0 3.8-1.7 3.8-3.8S77.1 24 75.1 24C73 24 71.3 25.7 71.3 27.8zM75.1 26c1 0 1.8 0.8 1.8 1.8s-0.8 1.8-1.8 1.8c-1 0-1.8-0.8-1.8-1.8S74.1 26 75.1 26z" fill="#ffffff" data-fill-palette-color="accent"></path><path d="M9.5 77.1l2.4 0.8 0.7 2.5c0.1 0.4 0.4 0.6 0.8 0.7 0.1 0 0.1 0 0.2 0 0.3 0 0.6-0.1 0.8-0.4l1.5-2.1 2.6 0.1c0.4 0 0.7-0.2 0.9-0.5 0.2-0.3 0.1-0.7-0.1-1.1L17.8 75l0.9-2.4c0.1-0.4 0-0.8-0.2-1-0.3-0.3-0.7-0.4-1-0.3L15 72.1l-2-1.6c-0.3-0.2-0.7-0.3-1.1-0.1-0.3 0.2-0.6 0.5-0.6 0.9l0 2.6-2.1 1.4c-0.3 0.2-0.5 0.6-0.4 1C8.9 76.6 9.1 77 9.5 77.1zM12.9 75.2c0.3-0.2 0.4-0.5 0.4-0.8l0-1.1 0.8 0.6c0.3 0.2 0.6 0.3 0.9 0.2l1-0.3-0.4 1c-0.1 0.3-0.1 0.7 0.1 0.9l0.6 0.9-1.1 0c-0.3 0-0.6 0.1-0.8 0.4L14 77.8l-0.3-1c-0.1-0.3-0.3-0.6-0.6-0.7l-1-0.3L12.9 75.2z" fill="#ffffff" data-fill-palette-color="accent"></path><path d="M32.5 52.4c-0.1-0.4-0.5-0.6-0.8-0.6l-1.9-0.2-0.9-1.6c-0.2-0.3-0.5-0.5-0.9-0.5-0.4 0-0.7 0.3-0.9 0.6l-0.7 1.7-1.8 0.4c-0.4 0.1-0.7 0.4-0.8 0.7-0.1 0.4 0 0.8 0.3 1l1.4 1.2-0.2 1.9c0 0.4 0.1 0.7 0.4 1C25.8 58 26 58 26.2 58c0.2 0 0.4 0 0.5-0.1l1.6-1 1.7 0.8c0.3 0.2 0.8 0.1 1-0.1 0.3-0.2 0.4-0.6 0.3-1L31 54.8l1.3-1.4C32.5 53.1 32.6 52.7 32.5 52.4zM29.2 53.8c-0.2 0.2-0.3 0.6-0.2 0.9l0.1 0.4-0.3-0.2c-0.3-0.1-0.6-0.1-0.9 0l-0.3 0.2 0-0.4c0-0.3-0.1-0.7-0.3-0.9l-0.3-0.2 0.4-0.1c0.3-0.1 0.6-0.3 0.7-0.6l0.1-0.3 0.2 0.3c0.2 0.3 0.5 0.5 0.8 0.5l0.4 0L29.2 53.8z" fill="#ffffff" data-fill-palette-color="accent"></path><path d="M21.5 21.6l3.1 0 1.8 2.6c0.2 0.3 0.5 0.4 0.8 0.4 0 0 0.1 0 0.1 0 0.4-0.1 0.7-0.3 0.8-0.7l1-3 3-0.9c0.4-0.1 0.6-0.4 0.7-0.8 0.1-0.4-0.1-0.8-0.4-1L30 16.5l0.1-3.1c0-0.4-0.2-0.7-0.5-0.9-0.3-0.2-0.7-0.2-1.1 0.1L26 14.4 23 13.3c-0.4-0.1-0.8 0-1 0.2-0.3 0.3-0.4 0.7-0.3 1l0.9 3L20.7 20c-0.2 0.3-0.3 0.7-0.1 1C20.8 21.4 21.1 21.6 21.5 21.6zM24.7 17.4l-0.5-1.6 1.5 0.6c0.3 0.1 0.7 0.1 0.9-0.1l1.3-0.9L28 17c0 0.3 0.1 0.6 0.4 0.8l1.3 1-1.6 0.5c-0.3 0.1-0.6 0.3-0.7 0.6l-0.5 1.5L26 20.1c-0.2-0.3-0.5-0.4-0.8-0.4l-1.6 0 1-1.3C24.8 18.1 24.8 17.7 24.7 17.4z" fill="#ffffff" data-fill-palette-color="accent"></path><circle cx="29.1" cy="80.6" r="1.1" fill="#ffffff" data-fill-palette-color="accent"></circle><circle cx="32" cy="29.8" r="1.1" fill="#ffffff" data-fill-palette-color="accent"></circle><circle cx="15.5" cy="65.5" r="1.1" fill="#ffffff" data-fill-palette-color="accent"></circle><circle cx="17.2" cy="44.1" r="1.1" fill="#ffffff" data-fill-palette-color="accent"></circle><circle cx="12.2" cy="16.9" r="1.1" fill="#ffffff" data-fill-palette-color="accent"></circle><path d="M31.9 69.7c0-2.1-1.7-3.8-3.8-3.8-2.1 0-3.8 1.7-3.8 3.8s1.7 3.8 3.8 3.8C30.2 73.4 31.9 71.8 31.9 69.7zM28.1 71.4c-1 0-1.8-0.8-1.8-1.8 0-1 0.8-1.8 1.8-1.8 1 0 1.8 0.8 1.8 1.8C29.9 70.7 29.1 71.4 28.1 71.4z" fill="#ffffff" data-fill-palette-color="accent"></path><path d="M22.3 89.3c2.1 0 3.8-1.7 3.8-3.8s-1.7-3.8-3.8-3.8c-2.1 0-3.8 1.7-3.8 3.8S20.2 89.3 22.3 89.3zM22.3 83.8c1 0 1.8 0.8 1.8 1.8s-0.8 1.8-1.8 1.8c-1 0-1.8-0.8-1.8-1.8S21.3 83.8 22.3 83.8z" fill="#ffffff" data-fill-palette-color="accent"></path><path d="M29.2 36.9c-2.1 0-3.8 1.7-3.8 3.8s1.7 3.8 3.8 3.8c2.1 0 3.8-1.7 3.8-3.8S31.3 36.9 29.2 36.9zM29.2 42.4c-1 0-1.8-0.8-1.8-1.8s0.8-1.8 1.8-1.8c1 0 1.8 0.8 1.8 1.8S30.2 42.4 29.2 42.4z" fill="#ffffff" data-fill-palette-color="accent"></path><path d="M11.8 29.8c0 2.1 1.7 3.8 3.8 3.8 2.1 0 3.8-1.7 3.8-3.8S17.6 26 15.5 26C13.4 26 11.8 27.7 11.8 29.8zM15.5 28c1 0 1.8 0.8 1.8 1.8s-0.8 1.8-1.8 1.8c-1 0-1.8-0.8-1.8-1.8S14.5 28 15.5 28z" fill="#ffffff" data-fill-palette-color="accent"></path><path d="M35.7 85.1h2.5v4.2c0 0.6 0.4 1 1 1H61c0.6 0 1-0.4 1-1v-4.2h3.1c0.3 0 0.6-0.1 0.8-0.3 0.2-0.2 0.3-0.5 0.2-0.8l-2.3-17.2c-0.1-0.5-0.5-0.9-1-0.9h-0.1V27.7c0 0 0 0 0 0 0-1.2 0.2-12.1-11.7-18.8-0.3-0.2-0.7-0.2-1 0C38 15.5 38.2 27 38.3 27.7v38.2h-0.2c-0.5 0-0.9 0.4-1 0.9L34.8 84c0 0.3 0 0.6 0.2 0.8C35.2 85 35.5 85.1 35.7 85.1zM60 88.3H40.3v-3.2H60V88.3zM50.5 10.9c8.9 5.2 10.1 13.1 10.2 15.8H40.3C40.4 23.9 41.7 16 50.5 10.9zM40.3 28.7h20.4v37.3H40.3V28.7zM38.9 67.9h22.9l2.1 15.2h-27L38.9 67.9z" fill="#ffffff" data-fill-palette-color="accent"></path><path d="M50.6 32.4c-3.7 0-6.7 3-6.7 6.7 0 3.7 3 6.7 6.7 6.7 3.7 0 6.7-3 6.7-6.7C57.4 35.4 54.3 32.4 50.6 32.4zM50.6 43.8c-2.6 0-4.7-2.1-4.7-4.7 0-2.6 2.1-4.7 4.7-4.7s4.7 2.1 4.7 4.7C55.4 41.7 53.2 43.8 50.6 43.8z" fill="#ffffff" data-fill-palette-color="accent"></path><path d="M50.4 35.5c-1.8 0-3.2 1.5-3.2 3.2 0 0.6 0.4 1 1 1s1-0.4 1-1c0-0.7 0.6-1.2 1.2-1.2 0.6 0 1-0.4 1-1S51 35.5 50.4 35.5z" fill="#ffffff" data-fill-palette-color="accent"></path></svg></g></svg></g></svg></g></svg></g><g><path d="M245.816 0c68.262 0 123.6 55.338 123.6 123.6 0 68.262-55.338 123.6-123.6 123.6-54.183 0-100.223-34.864-116.91-83.383h2.374c16.593 47.258 61.608 81.141 114.536 81.142 67.024 0 121.359-54.334 121.358-121.359 0-67.024-54.334-121.359-121.358-121.359-52.928 0-97.943 33.883-114.536 81.142l-2.374 0c16.687-48.519 62.727-83.383 116.91-83.383z" fill="#5b22a3" stroke="transparent" data-fill-palette-color="tertiary"></path></g></svg></g><defs></defs></svg><rect width="395.52" height="247.2" fill="none" stroke="none" visibility="hidden"></rect></g></svg></g></svg>